<?xml version="1.0" standalone="no"?>
<!DOCTYPE svg PUBLIC "-//W3C//DTD SVG 20010904//EN"
 "http://www.w3.org/TR/2001/REC-SVG-20010904/DTD/svg10.dtd">
<svg version="1.0" xmlns="http://www.w3.org/2000/svg"
 width="196.000000pt" height="97.000000pt" viewBox="0 0 196.000000 97.000000"
 preserveAspectRatio="xMidYMid meet">

<g transform="translate(0.000000,97.000000) scale(0.100000,-0.100000)"
fill="#000000" stroke="none">
<path d="M210 390 c-19 -36 -110 -279 -110 -295 0 -29 29 -15 40 20 l12 35 79
0 80 0 15 -35 c14 -35 28 -44 39 -25 3 5 -17 69 -46 142 -68 179 -85 203 -109
158z m28 -198 c-33 -2 -62 -1 -65 2 -4 3 23 84 53 160 6 15 15 -1 40 -70 l32
-89 -60 -3z"/>
<path d="M644 397 c-2 -7 -3 -80 -2 -162 l3 -150 73 0 c68 0 76 2 98 28 31 36
33 98 4 127 -11 11 -25 20 -31 20 -6 0 -1 12 10 26 34 43 24 86 -26 112 -30
16 -122 16 -129 -1z m124 -39 c7 -7 12 -21 12 -33 0 -31 -19 -45 -62 -45 l-38
0 0 45 0 45 38 0 c21 0 43 -5 50 -12z m22 -138 c45 -45 9 -100 -65 -100 l-45
0 0 60 0 60 45 0 c32 0 51 -6 65 -20z"/>
<path d="M1116 401 c-3 -4 15 -37 39 -72 25 -35 45 -68 45 -73 0 -5 -22 -40
-50 -78 -48 -66 -61 -98 -40 -98 6 0 33 32 61 70 28 39 55 70 59 70 4 0 28
-31 55 -70 45 -65 75 -88 75 -56 0 7 -15 33 -33 57 -18 24 -43 58 -55 75 l-22
32 45 61 c44 59 56 91 35 91 -6 0 -29 -27 -53 -59 -23 -33 -44 -60 -48 -60 -3
-1 -24 26 -47 59 -42 58 -55 69 -66 51z"/>
<path d="M1605 401 c-3 -6 17 -45 45 -89 48 -76 50 -82 50 -150 0 -70 13 -99
31 -71 5 8 9 45 9 83 0 64 3 73 46 143 35 55 44 77 36 85 -7 7 -13 10 -15 7
-2 -2 -23 -32 -46 -66 -23 -35 -43 -63 -45 -63 -3 0 -23 29 -45 65 -40 63 -54
75 -66 56z"/>
</g>
</svg>
