<?xml version="1.0" standalone="no"?>
<!DOCTYPE svg PUBLIC "-//W3C//DTD SVG 20010904//EN"
 "http://www.w3.org/TR/2001/REC-SVG-20010904/DTD/svg10.dtd">
<svg version="1.0" xmlns="http://www.w3.org/2000/svg"
 width="750.000000pt" height="630.000000pt" viewBox="0 0 750.000000 630.000000"
 preserveAspectRatio="xMidYMid meet">

<g transform="translate(0.000000,630.000000) scale(0.100000,-0.100000)"
fill="#000000" stroke="none">
<path d="M2119 6291 c-20 -4 -84 -32 -143 -61 -85 -43 -119 -66 -162 -113
-128 -139 -227 -447 -283 -886 -11 -80 -18 -146 -17 -147 1 -1 623 81 773 102
l112 16 -4 82 c-11 207 -13 420 -5 636 9 261 4 303 -41 346 -26 25 -37 28
-111 30 -46 2 -99 -1 -119 -5z"/>
<path d="M5174 6294 c-31 -7 -71 -53 -82 -95 -6 -24 -7 -124 -2 -275 8 -220 6
-433 -5 -640 l-4 -82 112 -16 c150 -21 772 -103 773 -102 1 1 -6 67 -17 147
-56 440 -155 747 -283 887 -45 48 -77 69 -171 116 -111 56 -118 58 -208 61
-50 2 -102 1 -113 -1z"/>
<path d="M2075 4994 c-197 -35 -465 -129 -690 -242 -189 -94 -217 -121 -244
-238 -18 -75 -43 -109 -115 -154 -126 -80 -134 -93 -299 -515 -377 -969 -603
-1727 -699 -2345 -30 -200 -33 -609 -4 -740 70 -323 228 -547 475 -674 96 -49
206 -86 257 -86 42 0 108 33 194 96 36 26 247 231 470 455 501 503 645 621
863 703 l82 31 1385 0 1385 0 74 -27 c228 -85 396 -222 874 -711 421 -430 561
-547 660 -547 52 0 161 36 258 86 247 127 405 351 475 674 29 130 26 540 -5
740 -98 640 -327 1398 -741 2455 -45 116 -91 227 -102 248 -29 57 -93 123
-154 158 -67 38 -90 67 -110 138 -38 142 -59 162 -287 271 -350 168 -615 240
-879 240 l-128 0 -108 -56 c-169 -89 -198 -103 -244 -114 -29 -7 -343 -10
-995 -8 l-952 3 -173 88 -173 88 -135 -2 c-74 0 -171 -7 -215 -15z m1827 -328
c73 -35 139 -100 175 -174 25 -50 28 -68 28 -152 0 -85 -3 -101 -29 -154 -37
-76 -96 -135 -172 -172 -53 -26 -69 -29 -154 -29 -85 0 -101 3 -154 29 -200
98 -267 342 -145 524 43 66 106 115 182 143 76 28 192 22 269 -15z m1905 -459
c47 -25 111 -101 123 -149 16 -56 6 -151 -19 -192 -29 -46 -71 -83 -116 -102
-50 -21 -167 -22 -215 -1 -45 19 -102 75 -125 123 -26 55 -24 157 3 210 26 52
92 109 140 123 49 14 172 6 209 -12z m-3775 -160 c143 -52 260 -151 327 -276
41 -77 71 -196 71 -281 0 -85 -30 -204 -72 -283 -49 -92 -156 -196 -248 -240
-185 -90 -345 -90 -530 0 -92 44 -199 148 -248 240 -186 352 12 779 403 863
72 16 223 4 297 -23z m3263 -337 c77 -48 118 -120 118 -210 0 -145 -98 -243
-242 -243 -268 0 -334 375 -82 470 51 19 162 10 206 -17z m970 19 c54 -14 119
-68 147 -123 23 -46 28 -150 9 -199 -17 -43 -99 -125 -139 -138 -51 -17 -162
-14 -199 5 -45 23 -89 62 -112 100 -27 42 -37 137 -21 194 11 44 74 123 114
144 51 28 132 34 201 17z m-1885 -71 c132 -67 132 -249 0 -315 -24 -13 -60
-23 -80 -23 -20 0 -56 10 -80 23 -132 66 -132 248 0 315 24 12 60 22 80 22 20
0 56 -10 80 -22z m-1050 -22 c105 -69 104 -223 -1 -293 -35 -23 -53 -28 -104
-28 -51 0 -69 5 -104 28 -122 81 -100 257 40 317 42 18 124 6 169 -24z m2411
-406 c53 -15 98 -49 136 -102 27 -37 35 -59 39 -110 8 -84 -7 -135 -57 -192
-59 -66 -107 -88 -193 -89 -112 0 -177 37 -232 131 -22 37 -26 57 -26 116 0
39 5 83 11 98 12 32 85 114 115 130 50 27 145 35 207 18z m-819 -303 c99 -36
173 -84 238 -154 138 -151 190 -352 140 -547 -28 -109 -74 -190 -155 -272
-109 -111 -258 -174 -410 -174 -152 0 -301 63 -410 174 -81 82 -127 163 -155
272 -83 325 122 652 455 724 72 16 223 4 297 -23z m-2011 -77 c62 -17 69 -39
69 -210 l0 -150 155 0 c155 0 156 0 180 -26 30 -32 38 -86 33 -214 -3 -81 -8
-105 -24 -127 l-21 -28 -162 -3 -161 -2 0 -143 c0 -78 -3 -152 -6 -164 -11
-41 -51 -57 -156 -61 -131 -6 -184 3 -214 35 -23 25 -24 32 -24 179 l0 154
-155 0 c-155 0 -156 0 -180 26 -30 32 -38 86 -33 214 3 81 8 105 24 127 l21
28 161 3 161 2 3 161 c3 157 3 161 28 179 14 11 34 21 45 23 42 9 222 6 256
-3z"/>
<path d="M3659 4655 c-110 -35 -193 -121 -225 -233 -21 -71 -14 -142 22 -222
71 -159 269 -232 429 -157 78 36 127 85 162 161 57 124 26 285 -70 372 -86 78
-219 111 -318 79z"/>
<path d="M5605 4182 c-31 -14 -36 -20 -22 -25 9 -3 34 -34 56 -67 l38 -61 41
65 c39 62 72 85 72 51 0 -8 -20 -47 -45 -87 -43 -69 -45 -76 -45 -146 0 -57
-3 -74 -16 -79 -24 -9 -34 15 -34 91 0 64 -3 73 -45 140 -25 40 -45 79 -45 86
0 21 -49 -30 -72 -74 -29 -57 -22 -149 15 -204 79 -113 264 -124 351 -21 64
76 72 159 22 243 -51 88 -181 130 -271 88z"/>
<path d="M1723 4035 c-203 -44 -374 -220 -418 -430 -27 -129 -11 -248 50 -372
75 -152 237 -269 408 -295 288 -44 561 149 622 437 27 129 11 248 -50 372
-109 220 -366 341 -612 288z"/>
<path d="M5085 3686 c-59 -27 -77 -46 -104 -106 -25 -56 -26 -113 -2 -165 33
-74 43 -74 98 2 27 37 52 73 56 80 5 7 -11 38 -38 75 -48 67 -55 88 -27 88 9
0 34 -24 55 -55 21 -30 42 -55 46 -55 4 0 25 25 46 55 36 53 57 66 70 45 3 -5
-14 -39 -39 -74 -26 -35 -46 -66 -46 -70 0 -3 25 -40 55 -82 30 -42 52 -82 48
-88 -3 -6 4 -2 17 9 82 71 79 226 -7 307 -63 61 -146 73 -228 34z"/>
<path d="M5116 3400 c-27 -39 -54 -70 -60 -70 -6 -1 5 -9 24 -20 44 -24 127
-26 178 -4 20 9 31 18 25 21 -7 2 -35 36 -63 74 -28 38 -51 69 -53 69 -1 0
-24 -32 -51 -70z"/>
<path d="M6089 3682 c-124 -64 -155 -217 -66 -318 92 -106 262 -99 342 14 40
57 47 149 16 209 -37 74 -118 123 -204 123 -19 0 -59 -13 -88 -28z m145 -43
c33 -26 36 -79 6 -109 -15 -15 -16 -20 -6 -20 21 0 56 -48 56 -76 0 -70 -47
-104 -145 -104 l-65 0 0 165 0 165 64 0 c49 0 69 -5 90 -21z"/>
<path d="M6120 3575 c0 -45 0 -45 34 -45 35 0 66 21 66 45 0 24 -31 45 -66 45
-34 0 -34 0 -34 -45z"/>
<path d="M6120 3430 l0 -60 38 0 c50 0 82 23 82 60 0 37 -32 60 -82 60 l-38 0
0 -60z"/>
<path d="M4233 3629 c-30 -15 -48 -33 -62 -63 -26 -53 -26 -79 0 -132 21 -45
81 -84 129 -84 13 0 43 9 66 21 45 21 84 81 84 129 0 48 -39 108 -84 129 -53
26 -80 26 -133 0z m147 -94 c0 -12 -15 -15 -75 -15 -60 0 -75 3 -75 15 0 12
15 15 75 15 60 0 75 -3 75 -15z m0 -40 c0 -12 -15 -15 -75 -15 -60 0 -75 3
-75 15 0 12 15 15 75 15 60 0 75 -3 75 -15z m0 -40 c0 -12 -15 -15 -75 -15
-60 0 -75 3 -75 15 0 12 15 15 75 15 60 0 75 -3 75 -15z"/>
<path d="M3165 3626 c-41 -18 -83 -69 -91 -111 -18 -98 79 -190 182 -170 45 8
100 57 114 101 39 118 -90 230 -205 180z m85 -86 c0 -15 7 -20 25 -20 23 0 25
-4 25 -45 l0 -45 -50 0 c-43 0 -50 3 -50 20 0 15 -7 20 -25 20 -23 0 -25 4
-25 45 l0 45 50 0 c43 0 50 -3 50 -20z"/>
<path d="M3170 3515 c0 -8 5 -15 11 -15 6 0 17 7 25 15 14 13 13 15 -10 15
-16 0 -26 -6 -26 -15z"/>
<path d="M3230 3475 c0 -8 9 -15 20 -15 11 0 20 7 20 15 0 8 -9 15 -20 15 -11
0 -20 -7 -20 -15z"/>
<path d="M5587 3196 c-94 -34 -147 -110 -147 -210 0 -127 93 -216 227 -216
111 0 208 86 220 193 18 158 -148 287 -300 233z m165 -181 c31 -77 57 -150 57
-162 2 -35 -27 -28 -46 12 l-17 35 -73 0 -74 0 -15 -35 c-14 -33 -36 -45 -48
-26 -3 5 0 24 8 42 7 19 35 89 61 157 64 167 70 166 147 -23z"/>
<path d="M5643 3029 l-31 -84 55 -3 c30 -2 58 -1 60 2 3 3 -8 42 -24 87 l-30
82 -30 -84z"/>
<path d="M4613 2915 c-203 -44 -374 -220 -418 -430 -27 -129 -11 -248 50 -372
75 -152 237 -269 408 -295 288 -44 561 149 622 437 18 88 18 142 0 230 -64
304 -359 496 -662 430z"/>
<path d="M2655 2815 c-16 -9 -33 -22 -37 -28 -4 -7 -8 -83 -8 -169 l0 -158
-165 0 -165 0 -17 -27 c-13 -19 -19 -52 -22 -116 -4 -107 3 -147 30 -175 19
-21 28 -22 179 -22 l160 0 0 -165 0 -165 27 -17 c19 -13 52 -19 116 -22 107
-4 147 3 175 30 21 19 22 28 22 179 l0 160 165 0 165 0 17 27 c13 19 19 52 22
116 4 107 -3 147 -30 175 -19 21 -28 22 -179 22 l-160 0 0 165 0 165 -27 17
c-39 26 -225 31 -268 8z"/>
</g>
</svg>
