<?xml version="1.0" standalone="no"?>
<!DOCTYPE svg PUBLIC "-//W3C//DTD SVG 20010904//EN"
 "http://www.w3.org/TR/2001/REC-SVG-20010904/DTD/svg10.dtd">
<svg version="1.0" xmlns="http://www.w3.org/2000/svg"
 width="750.000000pt" height="630.000000pt" viewBox="0 0 750.000000 630.000000"
 preserveAspectRatio="xMidYMid meet">

<g transform="translate(0.000000,630.000000) scale(0.100000,-0.100000)"
fill="#000000" stroke="none">
<path d="M2100 6290 c-46 -15 -215 -103 -245 -128 -128 -106 -232 -362 -295
-728 -20 -116 -51 -347 -47 -350 1 -1 81 9 177 22 96 13 267 35 380 49 113 14
232 30 265 36 l60 10 0 509 c0 499 -1 510 -21 537 -12 15 -32 34 -45 40 -27
14 -189 16 -229 3z"/>
<path d="M5171 6288 c-13 -7 -33 -25 -45 -41 -20 -27 -20 -38 -21 -537 l0
-509 65 -10 c36 -6 155 -22 265 -36 110 -14 279 -36 375 -49 96 -14 176 -23
178 -22 5 5 -28 241 -54 386 -37 203 -86 367 -148 495 -73 149 -119 195 -267
270 l-114 58 -105 4 c-73 3 -112 0 -129 -9z"/>
<path d="M2109 4995 c-243 -39 -609 -174 -829 -304 -85 -51 -104 -75 -131
-165 -29 -98 -51 -129 -115 -165 -67 -39 -128 -100 -160 -163 -13 -26 -75
-179 -138 -340 -515 -1324 -754 -2252 -733 -2848 9 -248 55 -426 153 -594 56
-96 174 -221 266 -282 80 -53 207 -107 293 -125 58 -12 63 -11 115 15 100 50
202 138 434 376 573 586 725 719 939 820 156 75 50 70 1547 70 1497 0 1391 5
1547 -70 91 -43 173 -96 278 -179 82 -65 355 -320 404 -377 18 -21 131 -138
251 -260 319 -324 440 -414 539 -399 68 10 196 60 274 106 129 77 265 224 335
364 37 75 86 227 103 325 21 113 18 471 -4 640 -82 609 -320 1411 -735 2475
-49 127 -101 254 -116 283 -33 66 -89 122 -160 163 -64 36 -86 67 -116 167
-12 43 -33 86 -50 105 -53 61 -364 208 -601 285 -202 66 -311 85 -484 86
l-150 1 -130 -71 c-213 -116 -78 -104 -1188 -104 l-972 1 -60 27 c-34 15 -110
54 -170 87 l-110 59 -120 3 c-68 1 -157 -4 -206 -12z m3949 -1697 c9 -9 12
-89 12 -298 0 -209 -3 -289 -12 -298 -18 -18 -46 -14 -60 8 -11 18 -14 18 -30
3 -30 -27 -117 -29 -166 -4 -66 34 -96 88 -100 181 -4 67 -1 83 22 128 33 65
74 94 142 100 42 3 60 0 88 -18 l36 -22 0 104 c0 106 7 128 40 128 9 0 21 -5
28 -12z m-4455 -51 c91 -39 148 -129 155 -248 6 -102 -16 -176 -69 -234 -59
-64 -100 -76 -239 -73 l-115 3 -3 270 c-1 148 0 275 3 282 6 18 224 18 268 0z
m321 0 c38 -27 -2 -95 -41 -71 -24 15 -28 48 -8 68 20 19 26 20 49 3z m3204
-9 c7 -7 12 -36 12 -64 0 -50 1 -53 28 -56 21 -2 27 -8 27 -28 0 -20 -6 -26
-27 -28 l-28 -3 -2 -182 -3 -182 -30 0 -30 0 -3 183 -2 182 -29 0 c-16 0 -31
6 -35 15 -10 26 5 45 35 45 29 0 29 1 29 59 0 57 6 68 36 70 5 1 15 -4 22 -11z
m-3199 -132 c8 -9 11 -73 9 -206 -3 -165 -5 -194 -19 -203 -9 -6 -24 -7 -33
-4 -14 6 -16 31 -16 210 0 112 3 207 7 210 11 12 40 8 52 -7z m368 -13 c32
-23 40 -48 23 -68 -10 -12 -19 -11 -61 10 -26 14 -59 25 -71 25 -31 0 -68 -27
-68 -49 0 -26 21 -41 114 -81 69 -30 84 -40 99 -72 16 -32 17 -43 7 -73 -14
-43 -60 -82 -106 -91 -95 -18 -207 24 -202 76 4 33 31 37 69 9 69 -49 174 -30
167 29 -3 23 -16 33 -97 72 -51 25 -99 54 -107 65 -8 10 -14 38 -14 61 0 43
30 86 75 105 36 16 142 5 172 -18z m423 1 c22 -22 18 -54 -7 -54 -8 0 -33 5
-57 11 -91 23 -150 -34 -150 -146 -1 -109 48 -165 131 -151 81 14 88 13 88
-14 0 -32 -35 -50 -103 -50 -69 0 -124 28 -159 82 -23 34 -29 55 -31 117 -3
67 0 82 25 131 39 77 84 102 176 98 51 -3 72 -8 87 -24z m372 -3 c62 -39 88
-95 88 -186 0 -130 -62 -206 -174 -213 -54 -3 -66 0 -107 26 -123 79 -121 302
3 376 61 37 129 36 190 -3z m260 10 c11 -19 12 -19 47 0 72 38 163 16 203 -50
21 -33 23 -47 23 -190 0 -135 -2 -155 -17 -165 -13 -8 -23 -8 -35 0 -16 10
-19 33 -23 162 -6 167 -13 186 -75 198 -33 6 -86 -14 -102 -38 -4 -7 -10 -80
-13 -162 -4 -122 -8 -151 -21 -159 -9 -6 -24 -7 -33 -4 -14 6 -16 31 -16 210
0 112 3 207 7 210 13 13 43 7 55 -12z m460 0 c11 -19 12 -19 47 0 72 38 163
16 203 -50 21 -33 23 -47 23 -190 0 -135 -2 -155 -17 -165 -13 -8 -23 -8 -35
0 -16 10 -19 33 -23 162 -6 167 -13 186 -75 198 -33 6 -86 -14 -102 -38 -4 -7
-10 -80 -13 -162 -4 -122 -8 -151 -21 -159 -9 -6 -24 -7 -33 -4 -14 6 -16 31
-16 210 0 112 3 207 7 210 13 13 43 7 55 -12z m672 -15 c40 -30 71 -83 81
-139 12 -63 3 -67 -162 -67 l-145 0 7 -27 c10 -44 34 -74 70 -89 50 -21 75
-18 144 18 52 27 64 30 72 18 15 -25 6 -43 -39 -74 -35 -25 -55 -31 -110 -34
-92 -5 -146 23 -184 97 -60 114 -19 261 87 316 47 25 134 16 179 -19z m446 8
c22 -22 18 -54 -7 -54 -8 0 -33 5 -57 11 -91 23 -150 -34 -150 -146 -1 -109
48 -165 131 -151 81 14 88 13 88 -14 0 -32 -35 -50 -103 -50 -69 0 -124 28
-159 82 -23 34 -29 55 -31 117 -3 67 0 82 25 131 39 77 84 102 176 98 51 -3
72 -8 87 -24z m604 -8 c40 -30 71 -83 81 -139 12 -63 3 -67 -162 -67 l-145 0
7 -27 c10 -44 34 -74 70 -89 50 -21 75 -18 144 18 52 27 64 30 72 18 15 -25 6
-43 -39 -74 -35 -25 -55 -31 -110 -34 -92 -5 -146 23 -184 97 -60 114 -19 261
87 316 47 25 134 16 179 -19z"/>
<path d="M5840 3048 c-14 -7 -35 -33 -47 -58 -70 -137 36 -293 147 -218 74 50
81 200 13 261 -27 24 -82 31 -113 15z"/>
<path d="M1400 2975 l0 -225 68 0 c143 1 212 73 212 224 0 158 -67 226 -222
226 l-58 0 0 -225z"/>
<path d="M2954 3051 c-81 -35 -98 -201 -28 -271 32 -32 101 -35 134 -5 65 58
67 201 3 258 -24 21 -80 30 -109 18z"/>
<path d="M4331 3047 c-29 -15 -57 -53 -65 -89 l-6 -28 115 0 c109 0 115 1 115
20 0 37 -30 81 -65 96 -42 17 -63 17 -94 1z"/>
<path d="M5381 3047 c-29 -15 -57 -53 -65 -89 l-6 -28 115 0 c109 0 115 1 115
20 0 37 -30 81 -65 96 -42 17 -63 17 -94 1z"/>
</g>
</svg>
