<?xml version="1.0" standalone="no"?>
<!DOCTYPE svg PUBLIC "-//W3C//DTD SVG 20010904//EN"
 "http://www.w3.org/TR/2001/REC-SVG-20010904/DTD/svg10.dtd">
<svg version="1.0" xmlns="http://www.w3.org/2000/svg"
 width="169.000000pt" height="83.000000pt" viewBox="0 0 169.000000 83.000000"
 preserveAspectRatio="xMidYMid meet">

<g transform="translate(0.000000,83.000000) scale(0.100000,-0.100000)"
fill="#000000" stroke="none">
<path d="M335 707 c-94 -31 -158 -88 -197 -172 -33 -73 -31 -181 4 -250 58
-111 154 -170 278 -170 124 0 220 59 278 170 22 42 26 63 26 130 0 93 -25 154
-91 217 -74 72 -207 105 -298 75z m185 -68 c60 -27 98 -64 126 -124 76 -160
-46 -345 -226 -345 -216 0 -329 256 -182 414 67 72 192 96 282 55z"/>
<path d="M1175 707 c-94 -31 -158 -88 -197 -172 -33 -73 -31 -181 4 -250 58
-111 154 -170 278 -170 124 0 220 59 278 170 22 42 26 63 26 130 0 93 -25 154
-91 217 -74 72 -207 105 -298 75z"/>
</g>
</svg>
